<?xml version="1.0" standalone="no"?><!DOCTYPE svg PUBLIC "-//W3C//DTD SVG 1.1//EN" "http://www.w3.org/Graphics/SVG/1.1/DTD/svg11.dtd"><svg t="1611031670628" class="icon" viewBox="0 0 1024 1024" version="1.1" xmlns="http://www.w3.org/2000/svg" p-id="4188" xmlns:xlink="http://www.w3.org/1999/xlink" width="200" height="200"><defs><style type="text/css"></style></defs><path d="M654.2336 341.2992H369.7664c-15.6672 0-28.4672-12.6976-28.4672-28.4672 0-15.6672 12.6976-28.4672 28.4672-28.4672h284.4672c15.6672 0 28.4672 12.6976 28.4672 28.4672s-12.8 28.4672-28.4672 28.4672m0 170.7008H369.7664c-15.6672 0-28.4672-12.6976-28.4672-28.4672 0-15.6672 12.6976-28.4672 28.4672-28.4672h284.4672c15.6672 0 28.4672 12.6976 28.4672 28.4672S669.9008 512 654.2336 512M796.4672 56.9344H227.5328c-31.4368 0-56.9344 25.3952-56.9344 56.9344v824.832c0 21.1968 22.3232 34.9184 41.1648 25.3952l274.7392-137.3184c15.9744-7.9872 34.9184-7.9872 50.8928 0l274.7392 137.3184c18.8416 9.5232 41.1648-4.3008 41.1648-25.3952V113.7664c0-31.4368-25.3952-56.832-56.832-56.832" fill="#323233" p-id="4189"></path></svg>